<svg xmlns="http://www.w3.org/2000/svg" xmlns:xlink="http://www.w3.org/1999/xlink" width="124" height="124" viewBox="0 0 124 124"><defs><path id="u5tta" d="M570 650.5a37.5 37.5 0 0 0 71.5 15.83l7.54 3.53a21.5 21.5 0 1 0 3.88-7.05l-8.82-4.14a37.44 37.44 0 0 0-13.57-37.76l6.27-13.36a15.5 15.5 0 1 0-7.05-3.89l-6.09 12.99a37.53 37.53 0 0 0-26.44-2.23l-5.13-10.97a11 11 0 1 0-7.23 3.51l4.91 10.48A37.5 37.5 0 0 0 570 650.5z"/></defs><g><g transform="translate(-568 -575)"><use fill="#333" xlink:href="#u5tta"/></g></g></svg>