<svg xmlns="http://www.w3.org/2000/svg" xmlns:xlink="http://www.w3.org/1999/xlink" width="135" height="128" viewBox="0 0 135 128"><defs><path id="bmvra" d="M178.1 695.53a19.45 19.45 0 0 0 9.4-12.23c3.53-4.81 10.44-15.55 10.5-25.78.08-13.74-3.06-18.36-7.16-23.38-4.1-5.01-13.29-6.87-13.29-6.87s11.8 7.9 12.22 13.42a19.21 19.21 0 0 1-5.74 15.1 90.16 90.16 0 0 1-6.11 5.3 19.59 19.59 0 0 0-19.08-.04 19.64 19.64 0 0 0-7.49 26.78 19.7 19.7 0 0 0 26.76 7.7zM166 581.45a12.5 12.5 0 0 0-12.59-2.36c-3.1-1-12.34-3.54-19.2-1-8.42 3.12-10.45 6.17-12.46 9.9-2.01 3.75-.77 9.93-.77 9.93s1.79-9.23 5.05-10.77a12.53 12.53 0 0 1 10.66.11 103 103 0 0 1 8.76 5.06 13.39 13.39 0 0 0 4.7 8.9 12.33 12.33 0 0 0 17.67-1.58c4.35-5.41 3.55-13.54-1.82-18.19zm-98.88 54.6a19.4 19.4 0 0 0 7.82 17.83c1.41 4.7 6.16 18.47 15.2 25.13 11.1 8.19 16.68 8.32 23.13 7.9 6.46-.44 13.23-7.01 13.23-7.01s-13.23 5.15-17.99 2.22a19.74 19.74 0 0 1-9.02-13.63c-.68-4.07-1.04-11.36-1.2-15.25a19.49 19.49 0 0 0 7.16-13.25 19.29 19.29 0 0 0-17.22-21.2 19.4 19.4 0 0 0-21.1 17.25zm34.94 17.37a39.5 39.5 0 0 0 42.31 23.81 25.92 25.92 0 0 1 11.12-18.7 25.4 25.4 0 0 1 18.91-4.05 39.62 39.62 0 0 0 3.56-16.45c0-12.61-5.86-23.84-15-31.1-5.04 1.37-10.7.3-15.12-3.42-1.63-1.38-2.96-3-3.97-4.76a39.5 39.5 0 0 0-41.81 23.88 22.12 22.12 0 0 1 6.2 15.4c0 5.98-2.36 11.4-6.2 15.4z"/></defs><g><g transform="translate(-65 -574)"><use fill="#333" xlink:href="#bmvra"/></g></g></svg>