<svg xmlns="http://www.w3.org/2000/svg" xmlns:xlink="http://www.w3.org/1999/xlink" width="124" height="124" viewBox="0 0 124 124"><defs><path id="k4rea" d="M358.79 604.6l-23.54-10.39 9.98 23.95zm-17.8 23.51L317 637.5l24 9.39zm3.6 28.1l-10.38 23.54 23.95-9.98zm23.52 17.8L377.5 698l9.39-24zm41.66-17.17l-13.56 13.56 23.54 10.39zm4.24-28.73v18.78L438 637.5zm-17.17-22.88l13.56 13.56 10.39-23.54zm-28.73-4.24h18.78L377.5 577zm-21.9 36.51a31.3 31.3 0 1 0 62.58 0 31.3 31.3 0 0 0-62.58 0z"/></defs><g><g transform="translate(-315 -575)"><use fill="#fff" xlink:href="#k4rea"/></g></g></svg>