<svg xmlns="http://www.w3.org/2000/svg" xmlns:xlink="http://www.w3.org/1999/xlink" width="103" height="124" viewBox="0 0 103 124"><defs><path id="l73za" d="M911 683l-14-24-9-4 3 12-10-8 1 13-9-10v13l13 23 8-14zm-100 0l17 1 8 14 13-23v-13l-9 10 1-13-10 8 3-12-9 4zm50-106l-3.03 14.35-5.8-13.49-.13 14.66-8.34-12.11 2.75 14.4-10.57-10.26 5.54 13.6-12.39-8.04 8.1 12.27-13.72-5.48 10.37 10.46-14.55-2.72 12.23 8.26-14.8.14 13.62 5.74-14.5 3 14.5 3-13.62 5.73 14.8.14-12.23 8.26 14.55-2.72-10.37 10.46 13.73-5.48-8.11 12.27 12.39-8.03-5.54 13.6 10.57-10.27-2.75 14.4 8.34-12.11.14 14.66 5.8-13.5 3.02 14.36 3.03-14.35 5.8 13.5.13-14.67 8.34 12.11-2.75-14.4L886.12 659l-5.54-13.6 12.39 8.03-8.1-12.27 13.72 5.48-10.37-10.46 14.55 2.72-12.23-8.26 14.8-.14-13.62-5.74 14.5-3-14.5-3 13.62-5.73-14.8-.14 12.23-8.26-14.55 2.72 10.37-10.46-13.73 5.48 8.11-12.27-12.39 8.03 5.54-13.6-10.57 10.28 2.75-14.41-8.34 12.11-.14-14.66-5.8 13.5z"/></defs><g><g transform="translate(-809 -575)"><use fill="#333" xlink:href="#l73za"/></g></g></svg>