<svg xmlns="http://www.w3.org/2000/svg" width="19.187" height="24.32"><path d="M18.923 6l-3.5 6.06a2 2 0 0 1-2.732.73l-.866-.5 1-1.73a1 1 0 0 0 1.366-.37l2.5-4.33a.994.994 0 0 0-.366-1.36l-3.464-2a1 1 0 0 0-1.366.36l-2.5 4.33a1.006 1.006 0 0 0 .366 1.37l-1 1.73-.866-.5a2 2 0 0 1-.732-2.73l3.5-6.06a1.989 1.989 0 0 1 2.732-.73l5.2 3A2 2 0 0 1 18.923 6zM7.093 16.49a1.006 1.006 0 0 1-.366-1.37l4-6.93a1 1 0 0 1 1.732 1l-4 6.93a1 1 0 0 1-1.366.37zm-.732-2.73a.993.993 0 0 0-1.366.36l-2.5 4.33a1.006 1.006 0 0 0 .366 1.37l3.464 2a1 1 0 0 0 1.366-.37l2.5-4.33a.992.992 0 0 0-.366-1.36l1-1.74.866.5a2.01 2.01 0 0 1 .732 2.74l-3.5 6.06a2 2 0 0 1-2.732.73l-5.2-3a2 2 0 0 1-.732-2.73l3.5-6.06a2 2 0 0 1 2.732-.74l.866.5z" fill="#fff" fill-rule="evenodd"/></svg>